<svg id="Layer_1" data-name="Layer 1" xmlns="http://www.w3.org/2000/svg" xmlns:xlink="http://www.w3.org/1999/xlink" viewBox="0 0 2000 2000"><defs><style>.cls-1{fill:url(#linear-gradient);}.cls-2{fill:url(#linear-gradient-2);}</style><linearGradient id="linear-gradient" x1="262.7" y1="1000" x2="1649.17" y2="1000" gradientUnits="userSpaceOnUse"><stop offset="0" stop-color="#0009bf"/><stop offset="1" stop-color="#97d1d1"/></linearGradient><linearGradient id="linear-gradient-2" x1="217.77" y1="998.87" x2="1782.23" y2="998.87" gradientUnits="userSpaceOnUse"><stop offset="0" stop-color="#97d1d1"/><stop offset="1" stop-color="#0009bf"/></linearGradient></defs><path class="cls-1" d="M694.37,811.93,512.09,467.09H262.7l246.73,451.5q3-1.86,5.9-3.67c7.6-4.72,15.4-9.53,23.23-14.32q6.69-4.08,13.18-8c3.89-2.36,7.83-4.69,11.69-7,9.11-5.44,18-10.62,26.74-15.66,1.93-1.15,3.87-2.26,5.8-3.38a1.23,1.23,0,0,0,.36-.23c1.9-1.08,3.8-2.16,5.7-3.27,12.36-7.15,26-15,39.85-22.65l7.17-4,10.88-6c3.84-2.13,7.7-4.23,11.57-6.33,7.57-4.13,15.24-8.22,22.9-12.25Zm601.93-152-40.17,76,47,76Q1241.5,847.51,1178.9,882l-157.51,298q17.59-7,35.12-14.19,140.82-57.8,277.5-125l52.14-94.93,46.33-84.34,115-209.32Zm-262.76,550.48c-12.48,5-24.34,9.67-35.71,14.09l-42.67,80.71-28.47-53.84-15.44-29.23-85.12-161-15.34-29v0L725.53,870.82l0,0L709.71,840.9c-17.44,9.18-34.64,18.71-51.91,28.21s-34.27,19.4-51.31,29.3-34,19.92-50.89,30.21q-15.29,9.28-30.41,18.81l22.58,41.31L564,1018.43l53.12,97.12v0l15.82,29,78.68,144,16,29.39,117.5,215h218.43l243.1-442.52c-78.09,37.42-157.84,72.87-237.73,105.67C1057.1,1200.88,1045.34,1205.66,1033.54,1210.38Zm364.67-743.29L1296.3,659.9l251.19-7.74,101.68-185.07Z"/><path class="cls-2" d="M1547.49,652.16,1296.3,659.9l-85.59,2.62,45.42,73.33,47,76Q1241.5,847.51,1178.9,882q-100.43,55.18-202.83,106.72c-34.24,17.27-68.71,34-103.28,50.53q-23.25,11.1-46.66,21.92-28.71,13.32-57.61,26.14c-44.89,20.09-90.14,39.33-135.59,57.28q-37.74,14.94-75.62,28.71c-35.46,12.61-71,24.57-106.23,34.47-17.6,4.88-35.2,9.3-52.33,13l-.52.11c-25.52,5.35-44.29-23.58-29.08-44.76,3.09-4.29,5.85-8,8-10.72,11.57-14.39,23.92-28.61,36.7-42.63s25.92-28,39.36-41.75,27.09-27.46,41-41,27.92-27,42-40.37c3.84-3.64,7.7-7.27,11.57-10.85,10.35-9.76,20.78-19.43,31.2-29.13l43.28-39.71,87.46-79c-17.44,9.18-34.64,18.71-51.91,28.21s-34.27,19.4-51.31,29.3-34,19.92-50.89,30.21q-15.29,9.28-30.41,18.81-10,6.24-19.85,12.58c-16.71,10.61-33.26,21.56-49.68,32.7s-32.83,22.48-49,34.24c-32.38,23.49-64.19,48.14-95,76a529.11,529.11,0,0,0-45.15,45.49,304.19,304.19,0,0,0-21.46,27.45c-6.88,10.23-13.76,21.24-19.4,35.88l-2.06,5.61c-.66,1.9-1.25,4.09-1.84,6.12a115.92,115.92,0,0,0-3,13.5,95.7,95.7,0,0,0,1.08,34.34,88.38,88.38,0,0,0,17.63,36.51,100.26,100.26,0,0,0,26.84,22.74,128.83,128.83,0,0,0,12.91,6.68c2.06.89,4,1.67,6.06,2.46l3,1.18,2.88,1,5.73,1.87,5.44,1.5c3.74,1,7.08,1.71,10.62,2.46a258.21,258.21,0,0,0,38.24,4.65,513.82,513.82,0,0,0,67.63-1.47c21.59-1.67,42.43-4.52,63.08-7.73,41.15-6.49,81.23-14.85,120.68-24.51q56.18-13.62,111-30c40.56-12,80.67-24.94,120.58-38.4q39.7-13.62,79.06-28,17-6.19,33.82-12.52,38.38-14.4,76.31-29.65,17.61-7,35.13-14.19,140.82-57.8,277.5-125,42.48-20.9,84.48-42.7l93.29,150.66,270.45-503.79Z"/></svg>